<?xml version="1.0" standalone="no"?>
<!DOCTYPE svg PUBLIC "-//W3C//DTD SVG 20010904//EN"
 "http://www.w3.org/TR/2001/REC-SVG-20010904/DTD/svg10.dtd">
<svg version="1.0" xmlns="http://www.w3.org/2000/svg"
 width="465.000000pt" height="465.000000pt" viewBox="0 0 465.000000 465.000000"
 preserveAspectRatio="xMidYMid meet">
<metadata>
Created by potrace 1.11, written by Peter Selinger 2001-2013
</metadata>
<g transform="translate(0.000000,465.000000) scale(0.100000,-0.100000)"
fill="#000000" stroke="none">
<path d="M470 3752 c0 -5 9 -27 20 -50 11 -22 20 -46 20 -52 0 -5 5 -10 10
-10 6 0 10 -7 10 -15 0 -9 12 -39 27 -68 15 -29 26 -57 25 -63 -1 -6 5 -17 13
-24 8 -7 15 -16 15 -21 0 -10 54 -132 75 -170 8 -14 12 -29 8 -33 -3 -3 -2 -6
3 -6 6 0 21 -29 35 -65 13 -36 27 -65 32 -65 4 0 7 -9 7 -20 0 -11 5 -20 10
-20 6 0 10 -6 10 -13 0 -7 9 -31 19 -53 38 -79 70 -154 65 -154 -3 0 2 -7 10
-16 9 -8 14 -19 11 -24 -3 -5 0 -10 6 -12 18 -6 13 -54 -8 -85 -36 -51 -115
-273 -129 -363 -3 -19 -8 -38 -11 -43 -2 -4 -6 -20 -9 -35 -8 -51 -16 -87 -21
-95 -3 -4 -7 -37 -9 -73 -2 -36 -5 -68 -8 -72 -3 -6 -16 -119 -20 -187 -1 -11
-5 -25 -8 -30 -4 -6 -3 -17 2 -24 4 -8 4 -26 0 -42 -9 -31 -7 -355 3 -379 3
-8 8 -35 12 -60 8 -69 16 -123 19 -140 1 -8 10 -30 19 -47 10 -18 15 -33 13
-33 -3 0 6 -12 20 -27 13 -14 22 -28 20 -30 -4 -4 28 -57 59 -98 8 -10 15 -25
15 -33 0 -9 11 -13 33 -12 17 1 37 1 42 0 6 -1 15 -1 20 0 28 7 115 4 115 -3
0 -4 5 -5 12 -1 17 11 178 12 184 2 3 -5 11 -5 17 0 16 13 49 12 66 -2 11 -8
13 -8 8 0 -5 9 44 12 186 14 204 2 458 5 1152 15 237 3 570 8 740 10 171 2
316 4 323 5 20 0 13 18 -10 26 -13 4 -25 10 -28 13 -3 4 -21 15 -40 24 -19 10
-48 26 -65 37 -16 11 -45 27 -62 36 -40 20 -36 29 14 32 66 4 76 8 80 28 17
85 22 472 9 604 -4 41 -9 98 -11 125 -2 28 -4 50 -5 50 -1 0 -3 11 -5 25 -3
33 -16 165 -20 216 -2 22 -6 54 -9 70 -23 132 -26 166 -13 188 6 12 10 24 9
29 -1 4 3 7 10 7 6 0 8 3 5 6 -4 4 4 21 16 38 12 17 21 32 20 33 -4 4 31 78
40 84 5 3 7 8 6 10 -3 4 43 101 52 109 8 7 31 68 29 76 -1 4 2 10 7 13 11 8
104 191 97 191 -3 0 2 7 10 16 9 8 14 19 11 24 -3 5 -1 10 3 12 10 4 177 340
174 351 -1 4 2 7 6 7 9 0 37 64 33 76 -2 4 2 10 9 14 6 4 22 30 35 57 l23 50
-67 -24 c-36 -14 -76 -28 -88 -30 -13 -3 -23 -9 -23 -12 0 -4 -6 -8 -12 -8
-13 0 -139 -47 -168 -62 -8 -4 -36 -14 -62 -22 -27 -7 -48 -17 -48 -21 0 -4
-3 -7 -7 -6 -11 3 -86 -23 -97 -33 -6 -5 -16 -9 -22 -9 -10 0 -35 -9 -74 -26
-18 -7 -56 -17 -59 -15 -2 2 -7 -2 -11 -8 -3 -6 -15 -13 -26 -15 -11 -2 -37
-11 -58 -20 -21 -9 -42 -13 -47 -10 -5 3 -9 1 -9 -4 0 -5 -21 -17 -47 -26 -27
-10 -58 -22 -70 -28 -12 -6 -39 -11 -60 -11 -35 0 -148 10 -148 13 0 2 -32 6
-90 13 -22 3 -57 12 -78 20 -20 9 -37 13 -37 10 0 -3 -7 0 -15 7 -8 7 -15 9
-15 4 0 -5 -4 -3 -8 3 -17 26 -177 32 -512 21 -46 -2 -97 3 -184 16 -6 1 -17
5 -23 9 -8 5 -13 4 -13 -3 0 -6 -12 -8 -32 -4 -38 7 -93 7 -125 0 -13 -3 -25
0 -28 5 -4 5 -11 7 -16 3 -6 -3 -54 -7 -107 -9 -54 -3 -144 -7 -201 -10 -88
-4 -110 -2 -146 14 -24 11 -46 17 -49 13 -3 -3 -6 0 -6 6 0 7 -5 12 -10 12
-10 0 -89 33 -125 52 -107 58 -285 146 -285 140 0 -4 -4 -2 -8 4 -4 5 -43 28
-87 50 -44 21 -82 41 -85 44 -6 6 -219 110 -225 110 -3 0 -5 -4 -5 -8z"/>
</g>
</svg>
